<mxfile host="app.diagrams.net" modified="2023-08-26T06:52:34.237Z" agent="Mozilla/5.0 (Macintosh; Intel Mac OS X 10_15_7) AppleWebKit/537.36 (KHTML, like Gecko) Chrome/116.0.0.0 Safari/537.36" etag="F-bsAXdtF0XaRT-Y31rX" version="21.6.9" type="github">
  <diagram name="ページ1" id="rqy1o1B3Ph0qInG719ov">
    <mxGraphModel dx="2074" dy="1127" grid="1" gridSize="10" guides="1" tooltips="1" connect="1" arrows="1" fold="1" page="1" pageScale="1" pageWidth="827" pageHeight="1169" math="0" shadow="0">
      <root>
        <mxCell id="0" />
        <mxCell id="1" parent="0" />
        <mxCell id="G9y4LLlfvLICw8twlqbB-1" value="" style="rounded=1;whiteSpace=wrap;html=1;" vertex="1" parent="1">
          <mxGeometry x="280" y="550" width="120" height="60" as="geometry" />
        </mxCell>
        <mxCell id="G9y4LLlfvLICw8twlqbB-3" value="" style="edgeStyle=orthogonalEdgeStyle;rounded=0;orthogonalLoop=1;jettySize=auto;html=1;" edge="1" parent="1" source="G9y4LLlfvLICw8twlqbB-2" target="G9y4LLlfvLICw8twlqbB-1">
          <mxGeometry relative="1" as="geometry" />
        </mxCell>
        <mxCell id="G9y4LLlfvLICw8twlqbB-2" value="" style="swimlane;startSize=0;" vertex="1" parent="1">
          <mxGeometry x="250" y="640" width="200" height="200" as="geometry" />
        </mxCell>
      </root>
    </mxGraphModel>
  </diagram>
</mxfile>
